<svg width="36" height="36" viewBox="0 0 36 36" fill="none" xmlns="http://www.w3.org/2000/svg">
<path d="M18 12.1333C20.0059 12.1268 21.973 12.6739 23.675 13.7117C25.3771 14.7495 26.7451 16.2359 27.6218 18C25.8218 21.5947 22.1455 23.8667 18 23.8667C13.8545 23.8667 10.1782 21.5947 8.37818 18C9.25486 16.2359 10.6229 14.7495 12.325 13.7117C14.027 12.6739 15.9941 12.1268 18 12.1333ZM18 10C12.5455 10 7.88727 13.3173 6 18C7.88727 22.6827 12.5455 26 18 26C23.4545 26 28.1127 22.6827 30 18C28.1127 13.3173 23.4545 10 18 10ZM18 15.3333C18.7233 15.3333 19.417 15.6143 19.9285 16.1144C20.4399 16.6145 20.7273 17.2928 20.7273 18C20.7273 18.7072 20.4399 19.3855 19.9285 19.8856C19.417 20.3857 18.7233 20.6667 18 20.6667C17.2767 20.6667 16.583 20.3857 16.0715 19.8856C15.5601 19.3855 15.2727 18.7072 15.2727 18C15.2727 17.2928 15.5601 16.6145 16.0715 16.1144C16.583 15.6143 17.2767 15.3333 18 15.3333ZM18 13.2C15.2945 13.2 13.0909 15.3547 13.0909 18C13.0909 20.6453 15.2945 22.8 18 22.8C20.7055 22.8 22.9091 20.6453 22.9091 18C22.9091 15.3547 20.7055 13.2 18 13.2Z" fill="#6D7A89"/>
</svg>
