<svg width="36" height="36" viewBox="0 0 36 36" fill="none" xmlns="http://www.w3.org/2000/svg">
<path d="M21.0441 8.38728C20.9217 8.26452 20.7762 8.16712 20.6161 8.10066C20.4559 8.03421 20.2842 8 20.1108 8C19.9374 8 19.7657 8.03421 19.6056 8.10066C19.4454 8.16712 19.3 8.26452 19.1775 8.38728L10.3084 17.2564C10.2106 17.3539 10.1331 17.4698 10.0802 17.5974C10.0272 17.725 10 17.8617 10 17.9999C10 18.138 10.0272 18.2747 10.0802 18.4023C10.1331 18.5299 10.2106 18.6458 10.3084 18.7433L19.1775 27.6124C19.6943 28.1292 20.5274 28.1292 21.0441 27.6124C21.5609 27.0957 21.5609 26.2626 21.0441 25.7458L13.3034 18.0051L21.0547 10.2539C21.5609 9.73716 21.5609 8.90403 21.0441 8.38728Z" fill="#6D7A89"/>
</svg>
