<?xml version="1.0" encoding="utf-8"?>
<!-- Generator: Adobe Illustrator 21.0.2, SVG Export Plug-In . SVG Version: 6.00 Build 0)  -->
<svg version="1.1" id="Layer_1" xmlns="http://www.w3.org/2000/svg" xmlns:xlink="http://www.w3.org/1999/xlink" x="0px" y="0px"
	 viewBox="0 0 50.7 20.8" style="enable-background:new 0 0 50.7 20.8;" xml:space="preserve">
<style type="text/css">
	.st0{fill:#006DB0;}
</style>
<title>logo</title>
<path class="st0" d="M12.2,0H9.5C9.2,0,9,0.2,9,0.5l0,0v5.9C8.7,6.2,8.4,6.1,8.1,6C7.5,5.7,6.9,5.6,6.3,5.6C4.4,5.6,2.6,6.5,1.5,8
	c-2.1,3.1-2.1,7.2,0,10.3c1.1,1.5,2.9,2.4,4.7,2.4c0.6,0,1.2-0.1,1.8-0.3C8.4,20.3,8.7,20.2,9,20l0,0c0,0.3,0.2,0.5,0.5,0.5l0,0h2.6
	c0.3,0,0.5-0.2,0.5-0.5l0,0V0.5C12.7,0.3,12.5,0,12.2,0z M9.2,13.2c0,1-0.2,1.9-0.7,2.8c-0.6,1.1-2.1,1.6-3.2,0.9
	c-0.4-0.2-0.7-0.5-0.9-0.9c-0.5-0.9-0.7-1.8-0.6-2.8c0-1,0.2-2,0.6-2.8c0.7-1.1,2.1-1.5,3.3-0.9C8,9.7,8.3,10,8.5,10.3
	C9,11.2,9.3,12.2,9.2,13.2z"/>
<path class="st0" d="M14.3,20l2.5,0.8c0.3,0.1,0.6-0.1,0.7-0.3l2.4-7.5l2.4,7.5c0.1,0.3,0.4,0.4,0.7,0.3l2.5-0.8
	c0.3-0.1,0.4-0.4,0.4-0.7c0,0,0,0,0,0L21.8,7.7c-0.1-0.4-0.3-0.7-0.5-1c-0.4-0.3-0.8-0.5-1.3-0.5c-0.5,0-0.9,0.1-1.3,0.5
	c-0.3,0.3-0.5,0.6-0.6,1l-4.1,11.6C13.8,19.6,14,19.9,14.3,20C14.3,20,14.3,20,14.3,20z"/>
<path class="st0" d="M37.5,8.4c0.1-0.3,0.2-0.5,0.2-0.8c0-0.4-0.2-0.8-0.5-1.1C36.9,6.1,36.4,6,35.9,6h-8.1c-0.3,0-0.5,0.2-0.5,0.5
	l0,0v2.4c0,0.3,0.2,0.5,0.5,0.5l0,0h4.8l-5.3,8c-0.2,0.2-0.3,0.5-0.4,0.8c-0.1,0.2-0.1,0.5-0.1,0.8c0,0.4,0.2,0.9,0.5,1.1
	c0.4,0.3,0.9,0.5,1.4,0.5h8.6c0.3,0,0.5-0.2,0.5-0.5l0,0v-2.4c0-0.3-0.2-0.5-0.5-0.5l0,0h-5.3l5.4-8.1C37.3,8.8,37.4,8.6,37.5,8.4z"
	/>
<path class="st0" d="M48.9,7c-1-0.8-2.2-1.3-3.5-1.3c-0.6,0-1.1,0.1-1.7,0.2c-0.4,0.1-0.8,0.3-1.1,0.5l0,0c0-0.3-0.2-0.5-0.5-0.5
	l0,0h-2.7c-0.3,0-0.5,0.2-0.5,0.5l0,0v13.8c0,0.3,0.2,0.5,0.5,0.5l0,0h2.7c0.3,0,0.5-0.2,0.5-0.5l0,0v-8.6c-0.1-0.7,0.2-1.4,0.7-1.9
	c0.9-0.7,2.1-0.7,3,0c0.5,0.5,0.7,1.2,0.7,1.9v8.6c0,0.3,0.2,0.5,0.5,0.5l0,0h2.6c0.3,0,0.5-0.2,0.5-0.5l0,0v-8.8
	C50.8,9.8,50.2,8.2,48.9,7z"/>
</svg>
