<svg width="36" height="36" viewBox="0 0 36 36" fill="none" xmlns="http://www.w3.org/2000/svg">
<path d="M14.9559 27.6127C15.0783 27.7355 15.2238 27.8329 15.3839 27.8993C15.5441 27.9658 15.7158 28 15.8892 28C16.0626 28 16.2343 27.9658 16.3944 27.8993C16.5546 27.8329 16.7 27.7355 16.8225 27.6127L25.6916 18.7436C25.7894 18.6461 25.8669 18.5302 25.9198 18.4026C25.9728 18.275 26 18.1383 26 18.0001C26 17.862 25.9728 17.7253 25.9198 17.5977C25.8669 17.4701 25.7894 17.3542 25.6916 17.2567L16.8225 8.38756C16.3058 7.87081 15.4726 7.87081 14.9559 8.38756C14.4391 8.90431 14.4391 9.73744 14.9559 10.2542L22.6966 17.9949L14.9453 25.7461C14.4391 26.2628 14.4391 27.096 14.9559 27.6127Z" fill="#6D7A89"/>
</svg>
