<svg width="36" height="36" viewBox="0 0 36 36" fill="none" xmlns="http://www.w3.org/2000/svg">
<path d="M16.8609 8C21.7521 8 25.7218 11.9697 25.7218 16.8609C25.7218 21.7521 21.7521 25.7218 16.8609 25.7218C11.9697 25.7218 8 21.7521 8 16.8609C8 11.9697 11.9697 8 16.8609 8ZM16.8609 23.7527C20.6681 23.7527 23.7527 20.6681 23.7527 16.8609C23.7527 13.0527 20.6681 9.96909 16.8609 9.96909C13.0527 9.96909 9.96909 13.0527 9.96909 16.8609C9.96909 20.6681 13.0527 23.7527 16.8609 23.7527ZM25.2147 23.8226L28 26.6069L26.6069 28L23.8226 25.2147L25.2147 23.8226Z" fill="#6D7A89"/>
</svg>
